<svg id="Слой_1" data-name="Слой 1" xmlns="http://www.w3.org/2000/svg" xmlns:xlink="http://www.w3.org/1999/xlink" viewBox="0 0 64 32"><defs><linearGradient id="Безымянный_градиент_9" x1="8.59" y1="-7.41" x2="55.41" y2="39.41" gradientUnits="userSpaceOnUse"><stop offset="0" stop-color="#a759fb"/><stop offset="1" stop-color="#536afb"/></linearGradient></defs><path d="M2,0H62a2,2,0,0,1,2,2V30a2,2,0,0,1-2,2H2a2,2,0,0,1-2-2V2A2,2,0,0,1,2,0Z" fill-rule="evenodd" fill="url(#Безымянный_градиент_9)"/><path d="M49.92,16.85a4.5,4.5,0,0,0-.62-9h-7a.5.5,0,0,0-.5.5v15a.51.51,0,0,0,.5.5h1a.5.5,0,0,0,.5-.5V16.9h3.89l3.76,6.5a1.07,1.07,0,0,0,.79.5h1.25c.28,0,.37-.23.21-.5Zm-6.12-2v-5h5.5a2.5,2.5,0,0,1,0,5Zm-6.5-7h-1a.5.5,0,0,0-.5.5v6.5h-8V8.4a.5.5,0,0,0-.5-.5h-1a.5.5,0,0,0-.5.5v15a.51.51,0,0,0,.5.5h1a.5.5,0,0,0,.5-.5V16.9h8v6.5a.51.51,0,0,0,.5.5h1a.5.5,0,0,0,.5-.5V8.4A.5.5,0,0,0,37.3,7.9Zm-16,7h-7a4.5,4.5,0,0,0,0,9h7a.5.5,0,0,0,.5-.5v-1a.5.5,0,0,0-.5-.5h-7a2.5,2.5,0,0,1,0-5h7a.5.5,0,0,0,.5-.5v-1A.5.5,0,0,0,21.3,14.9Zm0-7h-7a4.5,4.5,0,0,0-4.5,4.5v2.31a6.69,6.69,0,0,1,2-1.32v-1a2.5,2.5,0,0,1,2.5-2.5h7a.5.5,0,0,0,.5-.5v-1A.5.5,0,0,0,21.3,7.9Z" fill="#fff" fill-rule="evenodd"/></svg>